<svg xmlns="http://www.w3.org/2000/svg" viewBox="0 0 150 150"><defs><style>.cls-1{fill:#5452fd}.cls-2{fill:#fff;stroke:#fff;stroke-miterlimit:10;stroke-width:1.5px}</style></defs><g id="Layer_1" data-name="Layer 1"><path d="M150,75A75,75,0,0,1,22,128,75,75,0,1,1,150,75Z" class="cls-1"/></g><g id="Isolation_Mode" data-name="Isolation Mode"><polygon points="48.72 101.28 57.89 101.28 57.89 66.53 65.77 66.53 65.77 75.58 83.91 75.58 83.91 66.53 92.25 66.53 92.25 101.28 101.28 101.28 101.28 48.73 92.13 48.73 92.13 57.26 83.6 57.26 83.6 66.07 66.37 66.07 66.37 57.23 58 57.23 58 48.73 48.72 48.73 48.72 101.28" class="cls-2"/><rect width="7.94" height="7.94" x="101.33" y="40.64" class="cls-2"/><rect width="7.94" height="7.94" x="109.96" y="49.27" class="cls-2"/><rect width="7.94" height="7.94" x="40.43" y="101.28" class="cls-2"/><rect width="7.94" height="7.94" x="49.06" y="109.91" class="cls-2"/><rect width="7.94" height="7.94" x="49.06" y="32.01" class="cls-2" transform="translate(106.07 71.96) rotate(180)"/><rect width="33.99" height="7.94" x="58.09" y="24.06" class="cls-2" transform="translate(150.17 56.07) rotate(180)"/><rect width="33.99" height="7.94" x="58.63" y="117.99" class="cls-2" transform="translate(151.25 243.93) rotate(180)"/><rect width="7.94" height="7.94" x="93.34" y="109.91" class="cls-2"/><rect width="7.94" height="7.94" x="93.34" y="32.01" class="cls-2" transform="translate(194.62 71.96) rotate(180)"/><rect width="7.94" height="7.94" x="40.43" y="40.64" class="cls-2" transform="translate(88.81 89.22) rotate(180)"/><rect width="7.94" height="7.94" x="32.01" y="49.28" class="cls-2" transform="translate(71.96 106.5) rotate(180)"/><rect width="7.94" height="7.94" x="32.01" y="49.28" class="cls-2" transform="translate(71.96 106.5) rotate(180)"/><rect width="7.94" height="7.94" x="32.01" y="92.77" class="cls-2" transform="translate(71.96 193.48) rotate(180)"/><rect width="7.94" height="7.94" x="109.96" y="92.64" class="cls-2" transform="translate(227.87 193.23) rotate(180)"/><rect width="7.94" height="7.94" x="101.33" y="101.28" class="cls-2" transform="translate(210.6 210.49) rotate(180)"/><rect width="33.99" height="7.94" x="11.04" y="71.03" class="cls-2" transform="translate(-46.97 103.03) rotate(-90)"/><rect width="33.99" height="7.94" x="104.97" y="71.03" class="cls-2" transform="translate(46.97 196.97) rotate(-90)"/></g></svg>