<svg xmlns="http://www.w3.org/2000/svg" id="Layer_1" data-name="Layer 1" viewBox="0 0 150 150"><defs><style>.cls-1{fill:#178dcf}.cls-2{fill:#fff}</style></defs><path d="M150,75A75,75,0,0,1,22,128,75,75,0,1,1,150,75Z" class="cls-1"/><path d="M65.36,82.17v30.24s.33,3.29-3.8,3.36-13.71,0-13.71,0-5.4.46-6-6-.48-14.33,0-32.08c0,0-.18-5.06,6-4.65S65.19,73.11,65.36,82.17Z" class="cls-2"/><path d="M84.64,82.17v30.24s-.33,3.29,3.8,3.36,13.71,0,13.71,0,5.4.46,5.95-6,.48-14.33,0-32.08c0,0,.18-5.06-6-4.65S84.81,73.11,84.64,82.17Z" class="cls-2"/><path d="M102.47,58.47a309.24,309.24,0,0,1-54.94,0,6,6,0,0,1-6-6V41.74a6,6,0,0,1,6-6,248.58,248.58,0,0,1,54.94,0,6,6,0,0,1,6,6V52.45A6,6,0,0,1,102.47,58.47Z" class="cls-2"/></svg>